<?xml version="1.0" standalone="no"?>
<!DOCTYPE svg PUBLIC "-//W3C//DTD SVG 20010904//EN"
 "http://www.w3.org/TR/2001/REC-SVG-20010904/DTD/svg10.dtd">
<svg version="1.0" xmlns="http://www.w3.org/2000/svg"
 width="274.000000pt" height="274.000000pt" viewBox="0 0 274.000000 274.000000"
 preserveAspectRatio="xMidYMid meet">
<metadata>
Created by potrace 1.11, written by Peter Selinger 2001-2013
</metadata>
<g transform="translate(0.000000,274.000000) scale(0.100000,-0.100000)"
fill="#000000" stroke="none">
<path d="M2 1370 l3 -975 256 0 256 0 1 295 c0 162 0 310 1 328 l1 32 94 0
c63 0 97 -4 103 -12 6 -7 79 -148 163 -313 84 -165 157 -307 162 -315 8 -13
50 -15 291 -14 155 1 285 2 288 3 4 0 7 124 7 273 0 150 1 296 1 325 l1 52 94
0 95 1 19 -33 c11 -17 86 -162 167 -322 81 -159 150 -292 152 -295 3 -3 134
-5 293 -5 l289 0 -28 50 c-16 27 -81 145 -146 260 -65 116 -146 261 -181 323
-35 63 -64 115 -64 117 0 2 20 18 45 35 128 88 218 219 251 366 14 65 14 269
-2 334 -61 265 -249 412 -584 456 -30 4 -499 8 -1043 8 l-987 1 2 -975z m860
546 c108 -31 151 -92 149 -208 -3 -143 -80 -226 -230 -244 -81 -10 -252 -10
-259 0 -9 16 -8 466 2 469 32 11 288 -2 338 -17z m1110 0 c105 -30 150 -91
149 -200 -2 -87 -8 -110 -48 -164 -26 -35 -75 -64 -139 -81 -47 -12 -279 -20
-296 -10 -9 6 -14 232 -9 440 l1 36 143 -2 c97 -2 161 -8 199 -19z"/>
</g>
</svg>
